<svg xmlns="http://www.w3.org/2000/svg" viewBox="0 0 156 180">
  <path fill="#38d3c5" d="M78 2c-18 0-33 6.8-44.3 18.9C22.2 33 17 48.5 17 66.4c0 26.2 14.7 46.8 39.7 56.8-3.3 7-7.2 13.5-11.7 19.4-6.6 8.6-13.6 15-21.7 20.1A8 8 0 0 0 30 172c21.5-11.8 35-30 44.1-52.9 1.2-2.9 2.3-5.9 3.3-9 1 3 2.1 6 3.3 9 9 22.9 22.6 41 44 52.9a8 8 0 0 0 6.7-9.3c-8-5.1-15-11.5-21.6-20.1-4.4-5.9-8.3-12.4-11.6-19.4 25-10 39.6-30.6 39.6-56.8 0-17.9-5.1-33.4-16.6-45.5C111 8.8 96.1 2 78 2Zm0 20c13.2 0 23.7 4.5 31.6 12.9 8 8.4 11.4 20 11.4 31.5 0 19.6-10.2 34.6-28.7 42.2-1.8-5.8-3.6-12.3-4.9-19.5-1.5-7.6-2.4-15.5-2.5-23.3h-.1c0-4.5-3.4-8.1-7.6-8.1s-7.6 3.6-7.6 8.1h-.1c0 7.8-1 15.7-2.5 23.3-1.2 7.2-3 13.7-4.9 19.5C45 99 34.8 84 34.8 64.4c0-11.5 3.4-23.1 11.3-31.5C54.1 26.5 64.6 22 78 22Z"/>
</svg>
